<?xml version="1.0" encoding="UTF-8"?>
<svg width="635px" height="536px" viewBox="0 0 635 536" version="1.1" xmlns="http://www.w3.org/2000/svg" xmlns:xlink="http://www.w3.org/1999/xlink">
    <!-- Generator: Sketch 53.2 (72643) - https://sketchapp.com -->
    <title>Group 26</title>
    <desc>Created with Sketch.</desc>
    <defs>
        <polygon id="path-1" points="0.551867787 0.23 156.773346 0.23 156.773346 156.039449 0.551867787 156.039449"></polygon>
    </defs>
    <g id="Symbols" stroke="none" stroke-width="1" fill="none" fill-rule="evenodd">
        <g id="Footer" transform="translate(-10.000000, -14.000000)">
            <g id="Group-4" transform="translate(-51.000000, -153.000000)">
                <g id="Group-26" transform="translate(407.020701, 415.000000) rotate(43.000000) translate(-407.020701, -415.000000) translate(195.520701, 45.000000)">
                    <g id="Group-3" transform="translate(204.000000, 0.770000)">
                        <mask id="mask-2" fill="white">
                            <use xlink:href="#path-1"></use>
                        </mask>
                        <g id="Clip-2"></g>
                        <path d="M12.6441,150.0615 L145.5051,111.3015 L85.1891,152.6665 L12.6441,150.0615 Z M150.7251,106.2855 L8.5501,147.7625 L89.3741,72.9115 L150.7251,106.2855 Z M86.9121,70.6215 L5.2751,146.2245 L42.1191,5.8185 L86.9121,70.6215 Z M90.2701,69.5805 L51.4671,13.4465 L144.0241,98.8235 L90.2701,69.5805 Z M1.1421,152.6315 C1.2391,152.7125 1.3471,152.7515 1.4601,152.8095 C1.6301,152.8945 1.7921,152.9625 1.9791,152.9875 C2.0351,152.9955 2.0761,153.0385 2.1321,153.0405 L85.6211,156.0385 C85.9801,156.0505 86.3341,155.9485 86.6311,155.7455 L156.0471,108.1395 C156.1001,108.1035 156.1211,108.0405 156.1691,107.9995 C156.2721,107.9105 156.3501,107.8115 156.4301,107.6995 C156.5191,107.5735 156.5911,107.4505 156.6431,107.3045 C156.6641,107.2455 156.7171,107.2025 156.7321,107.1405 C156.7501,107.0615 156.7171,106.9865 156.7241,106.9085 C156.7311,106.8265 156.7771,106.7545 156.7731,106.6705 C156.7691,106.5975 156.7221,106.5395 156.7091,106.4685 C156.6851,106.3305 156.6451,106.2095 156.5871,106.0815 C156.5231,105.9415 156.4481,105.8225 156.3501,105.7055 C156.3031,105.6485 156.2901,105.5735 156.2351,105.5235 L42.5521,0.6605 C42.5331,0.6435 42.5061,0.6425 42.4861,0.6255 C42.3311,0.5035 42.1631,0.4165 41.9791,0.3565 C41.6471,0.2345 41.2951,0.1815 40.9441,0.2845 C40.5141,0.4105 40.1571,0.7025 39.9461,1.0865 C39.8811,1.2055 39.8291,1.3335 39.7951,1.4675 L0.5721,150.9385 C0.5701,150.9445 0.5731,150.9515 0.5721,150.9575 C0.5561,151.0195 0.5811,151.0815 0.5731,151.1445 C0.5401,151.3955 0.5391,151.6435 0.6171,151.8795 C0.6241,151.9025 0.6131,151.9255 0.6211,151.9475 C0.6541,152.0365 0.7381,152.0825 0.7841,152.1625 C0.8611,152.2995 0.9071,152.4525 1.0231,152.5655 C1.0571,152.5985 1.1061,152.6025 1.1421,152.6315 L1.1421,152.6315 Z" id="Fill-1" fill="#231F20" mask="url(#mask-2)"></path>
                    </g>
                    <path d="M278.5635,171.081 L145.7105,209.868 L206.0185,168.491 L278.5635,171.081 Z M140.4925,214.885 L282.6585,173.379 L201.8495,248.248 L140.4925,214.885 Z M204.3125,250.537 L285.9335,174.916 L249.1185,315.33 L204.3125,250.537 Z M200.9545,251.578 L239.7685,307.704 L147.1935,222.346 L200.9545,251.578 Z M290.0665,168.509 C289.9685,168.428 289.8605,168.389 289.7475,168.331 C289.5775,168.246 289.4155,168.177 289.2275,168.153 C289.1725,168.145 289.1305,168.102 289.0755,168.101 L205.5845,165.119 C205.2255,165.107 204.8725,165.209 204.5765,165.413 L135.1695,213.033 C135.1165,213.069 135.0955,213.131 135.0475,213.172 C134.9435,213.262 134.8665,213.36 134.7875,213.472 C134.6975,213.599 134.6255,213.721 134.5735,213.867 C134.5525,213.927 134.4995,213.969 134.4845,214.032 C134.4665,214.11 134.4995,214.185 134.4925,214.263 C134.4845,214.345 134.4385,214.418 134.4435,214.501 C134.4475,214.574 134.4945,214.632 134.5075,214.703 C134.5325,214.842 134.5715,214.962 134.6295,215.09 C134.6935,215.23 134.7685,215.349 134.8675,215.467 C134.9145,215.523 134.9275,215.598 134.9815,215.648 L248.6865,320.488 C248.7055,320.506 248.7325,320.507 248.7515,320.523 C248.9075,320.645 249.0765,320.731 249.2585,320.792 C249.5905,320.914 249.9435,320.967 250.2935,320.864 C250.7255,320.738 251.0815,320.446 251.2925,320.061 C251.3575,319.942 251.4095,319.815 251.4435,319.681 L290.6365,170.202 C290.6375,170.195 290.6345,170.188 290.6355,170.182 C290.6515,170.121 290.6265,170.059 290.6345,169.996 C290.6675,169.744 290.6685,169.497 290.5905,169.26 C290.5845,169.238 290.5945,169.214 290.5865,169.192 C290.5535,169.104 290.4685,169.058 290.4225,168.977 C290.3455,168.841 290.3005,168.687 290.1845,168.575 C290.1505,168.542 290.1015,168.538 290.0665,168.509 L290.0665,168.509 Z" id="Fill-4" fill="#231F20"></path>
                    <path d="M285.4219,325.3594 L411.9029,269.1744 L357.6639,318.2364 L285.4219,325.3594 Z M416.4049,263.5054 L281.0569,323.6284 L351.1419,238.6374 L416.4049,263.5054 Z M348.3959,236.6974 L277.6069,322.5424 L295.3359,178.4694 L348.3959,236.6974 Z M351.5839,235.2174 L305.6199,184.7784 L408.7679,257.0054 L351.5839,235.2174 Z M274.3659,329.4444 C274.4739,329.5114 274.5869,329.5364 274.7059,329.5784 C274.8859,329.6404 275.0559,329.6864 275.2449,329.6854 C275.2999,329.6854 275.3479,329.7224 275.4029,329.7164 L358.5429,321.5194 C358.9009,321.4844 359.2369,321.3354 359.5039,321.0944 L421.9279,264.6304 C421.9759,264.5874 421.9879,264.5224 422.0289,264.4754 C422.1209,264.3724 422.1849,264.2644 422.2479,264.1434 C422.3199,264.0054 422.3749,263.8754 422.4069,263.7234 C422.4199,263.6614 422.4669,263.6124 422.4729,263.5474 C422.4809,263.4684 422.4379,263.3984 422.4349,263.3194 C422.4309,263.2374 422.4669,263.1594 422.4509,263.0774 C422.4379,263.0054 422.3829,262.9544 422.3599,262.8854 C422.3179,262.7524 422.2629,262.6374 422.1879,262.5184 C422.1059,262.3884 422.0159,262.2804 421.9019,262.1774 C421.8489,262.1284 421.8249,262.0544 421.7649,262.0124 L295.0749,173.2994 C295.0539,173.2854 295.0259,173.2874 295.0049,173.2744 C294.8349,173.1734 294.6559,173.1104 294.4669,173.0754 C294.1219,172.9994 293.7659,172.9934 293.4319,173.1424 C293.0219,173.3244 292.7069,173.6614 292.5489,174.0704 C292.4999,174.1974 292.4659,174.3314 292.4499,174.4684 L273.5749,327.8424 C273.5739,327.8494 273.5789,327.8564 273.5779,327.8624 C273.5709,327.9254 273.6039,327.9844 273.6049,328.0474 C273.6049,328.3004 273.6379,328.5464 273.7459,328.7704 C273.7559,328.7914 273.7479,328.8164 273.7589,328.8374 C273.8039,328.9204 273.8939,328.9554 273.9499,329.0274 C274.0449,329.1534 274.1099,329.2984 274.2399,329.3954 C274.2779,329.4234 274.3269,329.4204 274.3659,329.4444 L274.3659,329.4444 Z" id="Fill-6" fill="#231F20"></path>
                    <path d="M138.4488,230.1103 L109.3558,365.4173 L101.6548,292.6873 L138.4488,230.1103 Z M111.2858,372.3943 L142.4188,227.6023 L169.8228,334.2993 L111.2858,372.3943 Z M173.0088,333.2233 L145.3288,225.4533 L251.3158,324.6403 L173.0088,333.2233 Z M172.3258,336.6723 L240.1598,329.2353 L121.0368,370.0493 L172.3258,336.6723 Z M141.6588,218.7693 C141.5418,218.8173 141.4558,218.8933 141.3508,218.9653 C141.1948,219.0743 141.0578,219.1843 140.9468,219.3383 C140.9138,219.3823 140.8568,219.3983 140.8288,219.4463 L98.4838,291.4633 C98.3018,291.7733 98.2238,292.1323 98.2608,292.4903 L107.1238,376.1953 C107.1308,376.2583 107.1758,376.3073 107.1898,376.3683 C107.2188,376.5023 107.2678,376.6173 107.3288,376.7403 C107.3978,376.8793 107.4708,377.0013 107.5748,377.1153 C107.6168,377.1633 107.6298,377.2293 107.6778,377.2723 C107.7378,377.3253 107.8188,377.3323 107.8848,377.3763 C107.9528,377.4213 107.9948,377.4963 108.0708,377.5323 C108.1368,377.5633 108.2108,377.5493 108.2788,377.5713 C108.4118,377.6163 108.5368,377.6383 108.6778,377.6483 C108.8308,377.6593 108.9708,377.6503 109.1208,377.6183 C109.1928,377.6043 109.2658,377.6283 109.3358,377.6043 L255.6478,327.4743 C255.6718,327.4653 255.6858,327.4423 255.7088,327.4323 C255.8908,327.3543 256.0468,327.2473 256.1868,327.1153 C256.4518,326.8813 256.6658,326.5963 256.7418,326.2393 C256.8368,325.7993 256.7498,325.3473 256.5118,324.9793 C256.4388,324.8643 256.3508,324.7583 256.2488,324.6643 L143.4198,219.0733 C143.4148,219.0683 143.4068,219.0683 143.4018,219.0643 C143.3558,219.0223 143.2888,219.0133 143.2378,218.9773 C143.0318,218.8273 142.8148,218.7103 142.5698,218.6653 C142.5468,218.6613 142.5318,218.6403 142.5078,218.6363 C142.4148,218.6233 142.3328,218.6763 142.2408,218.6783 C142.0838,218.6813 141.9278,218.6483 141.7728,218.6963 C141.7288,218.7113 141.7018,218.7523 141.6588,218.7693 L141.6588,218.7693 Z" id="Fill-8" fill="#231F20"></path>
                    <path d="M235.0367,334.374 L125.8807,419.458 L166.6567,358.743 L235.0367,334.374 Z M122.8827,426.047 L239.6907,334.999 L192.2217,434.406 L122.8827,426.047 Z M195.3547,435.625 L243.3017,335.218 L260.9117,479.306 L195.3547,435.625 Z M192.6187,437.832 L249.4087,475.669 L131.8647,430.508 L192.6187,437.832 Z M244.7777,327.738 C244.6577,327.698 244.5417,327.702 244.4147,327.69 C244.2257,327.673 244.0497,327.67 243.8667,327.716 C243.8127,327.729 243.7587,327.705 243.7057,327.724 L165.0107,355.769 C164.6717,355.891 164.3817,356.116 164.1807,356.415 L117.2517,426.29 C117.2157,426.343 117.2187,426.409 117.1897,426.465 C117.1257,426.587 117.0907,426.706 117.0587,426.84 C117.0217,426.99 116.9997,427.131 117.0057,427.285 C117.0077,427.349 116.9747,427.407 116.9837,427.472 C116.9957,427.551 117.0547,427.608 117.0767,427.684 C117.0997,427.763 117.0837,427.847 117.1197,427.923 C117.1497,427.989 117.2147,428.025 117.2527,428.087 C117.3267,428.206 117.4087,428.305 117.5097,428.401 C117.6207,428.509 117.7337,428.591 117.8697,428.664 C117.9327,428.699 117.9737,428.764 118.0427,428.79 L262.4147,484.259 C262.4387,484.269 262.4647,484.259 262.4897,484.268 C262.6787,484.323 262.8667,484.342 263.0587,484.33 C263.4117,484.32 263.7597,484.239 264.0477,484.015 C264.4027,483.739 264.6247,483.336 264.6797,482.9 C264.6967,482.766 264.6977,482.628 264.6797,482.49 L245.9317,329.101 C245.9307,329.094 245.9257,329.089 245.9247,329.082 C245.9157,329.02 245.8697,328.971 245.8547,328.91 C245.7927,328.664 245.7027,328.434 245.5417,328.243 C245.5277,328.225 245.5297,328.198 245.5137,328.181 C245.4507,328.111 245.3547,328.099 245.2827,328.041 C245.1607,327.943 245.0607,327.817 244.9117,327.755 C244.8687,327.737 244.8217,327.752 244.7777,327.738 L244.7777,327.738 Z" id="Fill-10" fill="#231F20"></path>
                    <path d="M253.8145,479.7363 L124.4165,430.6403 L197.4785,433.9563 L253.8145,479.7363 Z M117.2285,431.5003 L255.6985,484.0383 L146.0935,495.0963 L117.2285,431.5003 Z M146.6795,498.4083 L257.3845,487.2383 L143.3975,577.1163 L146.6795,498.4083 Z M143.3725,497.2153 L140.5305,565.3963 L118.0815,441.4933 L143.3725,497.2153 Z M264.5435,484.6143 C264.5155,484.4913 264.4525,484.3943 264.3965,484.2803 C264.3125,484.1103 264.2245,483.9583 264.0895,483.8253 C264.0505,483.7863 264.0435,483.7263 264.0005,483.6913 L199.1645,431.0053 C198.8845,430.7783 198.5415,430.6473 198.1825,430.6313 L114.0965,426.8143 C114.0325,426.8113 113.9785,426.8483 113.9155,426.8523 C113.7775,426.8613 113.6575,426.8933 113.5265,426.9353 C113.3785,426.9823 113.2475,427.0363 113.1185,427.1223 C113.0645,427.1563 112.9975,427.1583 112.9475,427.1993 C112.8865,427.2513 112.8675,427.3313 112.8145,427.3883 C112.7595,427.4493 112.6785,427.4803 112.6325,427.5493 C112.5915,427.6103 112.5945,427.6843 112.5615,427.7493 C112.4985,427.8743 112.4565,427.9953 112.4265,428.1323 C112.3925,428.2823 112.3805,428.4223 112.3885,428.5753 C112.3925,428.6483 112.3575,428.7163 112.3705,428.7893 L139.9445,580.9723 C139.9495,580.9983 139.9705,581.0153 139.9765,581.0403 C140.0265,581.2313 140.1085,581.4013 140.2185,581.5593 C140.4105,581.8573 140.6595,582.1123 141.0015,582.2413 C141.4215,582.4003 141.8815,582.3823 142.2815,582.2023 C142.4055,582.1473 142.5235,582.0763 142.6315,581.9893 L263.9795,486.3093 C263.9845,486.3043 263.9855,486.2983 263.9915,486.2933 C264.0405,486.2543 264.0575,486.1883 264.1025,486.1433 C264.2805,485.9633 264.4295,485.7653 264.5095,485.5303 C264.5175,485.5073 264.5415,485.4963 264.5475,485.4733 C264.5755,485.3833 264.5355,485.2953 264.5465,485.2043 C264.5675,485.0483 264.6245,484.8983 264.5985,484.7383 C264.5915,484.6913 264.5545,484.6593 264.5435,484.6143 L264.5435,484.6143 Z" id="Fill-12" fill="#231F20"></path>
                    <path d="M140.8975,569.3799 L116.2125,438.4279 L150.1965,500.1059 L140.8975,569.3799 Z M111.8955,432.9559 L138.3105,573.0879 L74.1605,488.6169 L111.8955,432.9559 Z M71.7345,490.7619 L136.5295,576.0819 L5.4365,527.6099 L71.7345,490.7619 Z M71.0525,487.4459 L13.6225,519.3669 L104.1155,438.6769 L71.0525,487.4459 Z M142.2815,580.6439 C142.3685,580.5579 142.4165,580.4579 142.4815,580.3559 C142.5795,580.1999 142.6605,580.0519 142.7015,579.8739 C142.7135,579.8219 142.7585,579.7859 142.7655,579.7329 L153.4675,500.0079 C153.5135,499.6639 153.4485,499.3169 153.2815,499.0139 L114.1695,428.0289 C114.1405,427.9759 114.0825,427.9489 114.0475,427.8999 C113.9715,427.7909 113.8845,427.7079 113.7845,427.6209 C113.6715,427.5239 113.5615,427.4429 113.4265,427.3799 C113.3715,427.3539 113.3355,427.2989 113.2765,427.2789 C113.2045,427.2539 113.1285,427.2789 113.0545,427.2649 C112.9765,427.2499 112.9115,427.1989 112.8305,427.1949 C112.7605,427.1929 112.7005,427.2329 112.6315,427.2379 C112.4965,427.2489 112.3765,427.2759 112.2485,427.3189 C112.1085,427.3659 111.9875,427.4269 111.8655,427.5109 C111.8075,427.5509 111.7345,427.5559 111.6805,427.6039 L0.5335,526.7109 C0.5155,526.7279 0.5115,526.7539 0.4935,526.7719 C0.3625,526.9079 0.2645,527.0619 0.1895,527.2319 C0.0415,527.5379 -0.0425,527.8709 0.0225,528.2169 C0.1025,528.6419 0.3485,529.0109 0.6975,529.2489 C0.8055,529.3219 0.9235,529.3839 1.0485,529.4299 L140.6055,581.0309 C140.6115,581.0329 140.6185,581.0299 140.6245,581.0329 C140.6815,581.0529 140.7445,581.0349 140.8035,581.0489 C141.0415,581.1049 141.2775,581.1279 141.5125,581.0759 C141.5345,581.0709 141.5555,581.0839 141.5775,581.0779 C141.6655,581.0559 141.7185,580.9789 141.7985,580.9429 C141.9375,580.8809 142.0885,580.8519 142.2075,580.7509 C142.2415,580.7219 142.2505,580.6749 142.2815,580.6439 L142.2815,580.6439 Z" id="Fill-14" fill="#231F20"></path>
                    <path d="M163.1451,604.1221 L291.8181,655.0891 L218.8121,650.7141 L163.1451,604.1221 Z M299.0181,654.3331 L161.3241,599.7941 L271.0771,590.3251 L299.0181,654.3331 Z M270.5391,587.0061 L159.6841,596.5691 L274.9621,508.3531 L270.5391,587.0061 Z M273.8291,588.2461 L277.6591,520.1131 L298.3101,644.3291 L273.8291,588.2461 Z M152.4871,599.0901 C152.5141,599.2131 152.5761,599.3101 152.6291,599.4261 C152.7111,599.5981 152.7971,599.7511 152.9301,599.8861 C152.9691,599.9251 152.9761,599.9841 153.0191,600.0201 L217.0831,653.6411 C217.3591,653.8711 217.7011,654.0081 218.0601,654.0291 L302.0811,659.0631 C302.1451,659.0671 302.2001,659.0311 302.2631,659.0281 C302.4001,659.0211 302.5211,658.9911 302.6531,658.9511 C302.8021,658.9061 302.9341,658.8541 303.0631,658.7701 C303.1171,658.7361 303.1851,658.7351 303.2351,658.6951 C303.2981,658.6451 303.3171,658.5651 303.3711,658.5081 C303.4281,658.4481 303.5081,658.4191 303.5561,658.3501 C303.5981,658.2901 303.5961,658.2151 303.6291,658.1511 C303.6951,658.0271 303.7381,657.9071 303.7701,657.7701 C303.8071,657.6211 303.8201,657.4811 303.8141,657.3281 C303.8121,657.2551 303.8481,657.1871 303.8361,657.1141 L278.4711,504.5481 C278.4671,504.5221 278.4451,504.5051 278.4401,504.4791 C278.3931,504.2881 278.3121,504.1161 278.2051,503.9561 C278.0191,503.6561 277.7721,503.3981 277.4331,503.2641 C277.0161,503.0991 276.5551,503.1101 276.1511,503.2841 C276.0271,503.3381 275.9081,503.4071 275.7991,503.4921 L153.0771,597.4031 C153.0711,597.4071 153.0701,597.4151 153.0641,597.4191 C153.0151,597.4581 152.9961,597.5221 152.9511,597.5661 C152.7701,597.7451 152.6181,597.9391 152.5351,598.1741 C152.5261,598.1961 152.5031,598.2081 152.4961,598.2301 C152.4681,598.3201 152.5061,598.4091 152.4931,598.5001 C152.4701,598.6561 152.4121,598.8051 152.4341,598.9651 C152.4401,599.0121 152.4771,599.0451 152.4871,599.0901 L152.4871,599.0901 Z" id="Fill-16" fill="#231F20"></path>
                    <path d="M234.419,725.289 L160.835,608.073 L217.105,654.792 L234.419,725.289 Z M154.584,604.423 L233.326,729.855 L139.24,672.557 L154.584,604.423 Z M137.71,675.551 L232.741,733.426 L87.611,736.345 L137.71,675.551 Z M135.792,672.604 L92.395,725.268 L149.235,612.906 L135.792,672.604 Z M240.033,735.652 C240.085,735.536 240.093,735.421 240.117,735.297 C240.153,735.11 240.175,734.935 240.148,734.748 C240.14,734.693 240.169,734.642 240.156,734.588 L220.23,653.455 C220.144,653.106 219.949,652.795 219.672,652.564 L154.912,598.796 C154.863,598.755 154.797,598.752 154.745,598.718 C154.63,598.642 154.515,598.595 154.385,598.549 C154.239,598.496 154.102,598.461 153.947,598.451 C153.883,598.446 153.829,598.407 153.764,598.41 C153.684,598.414 153.621,598.466 153.544,598.48 C153.463,598.496 153.38,598.472 153.301,598.499 C153.232,598.522 153.189,598.584 153.125,598.615 C152.998,598.677 152.893,598.748 152.785,598.839 C152.668,598.938 152.574,599.043 152.488,599.17 C152.447,599.23 152.378,599.264 152.345,599.33 L82.53,737.337 C82.519,737.36 82.525,737.387 82.515,737.41 C82.44,737.593 82.403,737.778 82.395,737.971 C82.368,738.323 82.414,738.678 82.608,738.986 C82.847,739.367 83.225,739.63 83.652,739.728 C83.785,739.759 83.922,739.773 84.061,739.769 L238.561,736.663 C238.567,736.663 238.573,736.657 238.58,736.657 C238.643,736.655 238.696,736.614 238.758,736.605 C239.009,736.568 239.248,736.502 239.454,736.362 C239.474,736.349 239.499,736.353 239.518,736.34 C239.594,736.284 239.616,736.189 239.68,736.124 C239.791,736.012 239.926,735.926 240.003,735.783 C240.025,735.742 240.015,735.694 240.033,735.652 L240.033,735.652 Z" id="Fill-18" fill="#231F20"></path>
                    <polygon id="Fill-20" fill="#FEFEFE" points="146.6797 498.4082 257.3847 487.2382 143.3977 577.1162"></polygon>
                    <polygon id="Fill-22" fill="#FEFEFE" points="117.2285 431.5 255.6985 484.038 146.0935 495.097"></polygon>
                    <polygon id="Fill-24" fill="#FEFEFE" points="253.8145 479.7363 124.4165 430.6403 197.4785 433.9563"></polygon>
                </g>
            </g>
        </g>
    </g>
</svg>