<?xml version="1.0" encoding="UTF-8"?>
<svg width="647px" height="549px" viewBox="0 0 647 549" version="1.1" xmlns="http://www.w3.org/2000/svg" xmlns:xlink="http://www.w3.org/1999/xlink">
    <!-- Generator: Sketch 53.2 (72643) - https://sketchapp.com -->
    <title>footer-graphic</title>
    <desc>Created with Sketch.</desc>
    <defs>
        <polygon id="path-1" points="0.551867787 0.23 156.773346 0.23 156.773346 156.039449 0.551867787 156.039449"></polygon>
    </defs>
    <g id="Symbols" stroke="none" stroke-width="1" fill="none" fill-rule="evenodd">
        <g id="Footer" transform="translate(-10.000000, -11.000000)">
            <g id="footer-graphic" transform="translate(367.984838, 270.167128) rotate(43.000000) translate(-367.984838, -270.167128) translate(146.984838, -109.332872)">
                <g id="Group-3" transform="translate(277.680016, 90.956463) rotate(-10.000000) translate(-277.680016, -90.956463) translate(199.180016, 12.456463)">
                    <mask id="mask-2" fill="white">
                        <use xlink:href="#path-1"></use>
                    </mask>
                    <g id="Clip-2"></g>
                    <path d="M12.6441,150.0615 L145.5051,111.3015 L85.1891,152.6665 L12.6441,150.0615 Z M150.7251,106.2855 L8.5501,147.7625 L89.3741,72.9115 L150.7251,106.2855 Z M86.9121,70.6215 L5.2751,146.2245 L42.1191,5.8185 L86.9121,70.6215 Z M90.2701,69.5805 L51.4671,13.4465 L144.0241,98.8235 L90.2701,69.5805 Z M1.1421,152.6315 C1.2391,152.7125 1.3471,152.7515 1.4601,152.8095 C1.6301,152.8945 1.7921,152.9625 1.9791,152.9875 C2.0351,152.9955 2.0761,153.0385 2.1321,153.0405 L85.6211,156.0385 C85.9801,156.0505 86.3341,155.9485 86.6311,155.7455 L156.0471,108.1395 C156.1001,108.1035 156.1211,108.0405 156.1691,107.9995 C156.2721,107.9105 156.3501,107.8115 156.4301,107.6995 C156.5191,107.5735 156.5911,107.4505 156.6431,107.3045 C156.6641,107.2455 156.7171,107.2025 156.7321,107.1405 C156.7501,107.0615 156.7171,106.9865 156.7241,106.9085 C156.7311,106.8265 156.7771,106.7545 156.7731,106.6705 C156.7691,106.5975 156.7221,106.5395 156.7091,106.4685 C156.6851,106.3305 156.6451,106.2095 156.5871,106.0815 C156.5231,105.9415 156.4481,105.8225 156.3501,105.7055 C156.3031,105.6485 156.2901,105.5735 156.2351,105.5235 L42.5521,0.6605 C42.5331,0.6435 42.5061,0.6425 42.4861,0.6255 C42.3311,0.5035 42.1631,0.4165 41.9791,0.3565 C41.6471,0.2345 41.2951,0.1815 40.9441,0.2845 C40.5141,0.4105 40.1571,0.7025 39.9461,1.0865 C39.8811,1.2055 39.8291,1.3335 39.7951,1.4675 L0.5721,150.9385 C0.5701,150.9445 0.5731,150.9515 0.5721,150.9575 C0.5561,151.0195 0.5811,151.0815 0.5731,151.1445 C0.5401,151.3955 0.5391,151.6435 0.6171,151.8795 C0.6241,151.9025 0.6131,151.9255 0.6211,151.9475 C0.6541,152.0365 0.7381,152.0825 0.7841,152.1625 C0.8611,152.2995 0.9071,152.4525 1.0231,152.5655 C1.0571,152.5985 1.1061,152.6025 1.1421,152.6315 L1.1421,152.6315 Z" id="Fill-1" fill="#231F20" mask="url(#mask-2)"></path>
                </g>
                <path d="M286.701485,196.663183 L153.848485,235.450183 L214.156485,194.073183 L286.701485,196.663183 Z M148.630485,240.467183 L290.796485,198.961183 L209.987485,273.830183 L148.630485,240.467183 Z M212.450485,276.119183 L294.071485,200.498183 L257.256485,340.912183 L212.450485,276.119183 Z M209.092485,277.160183 L247.906485,333.286183 L155.331485,247.928183 L209.092485,277.160183 Z M298.204485,194.091183 C298.106485,194.010183 297.998485,193.971183 297.885485,193.913183 C297.715485,193.828183 297.553485,193.759183 297.365485,193.735183 C297.310485,193.727183 297.268485,193.684183 297.213485,193.683183 L213.722485,190.701183 C213.363485,190.689183 213.010485,190.791183 212.714485,190.995183 L143.307485,238.615183 C143.254485,238.651183 143.233485,238.713183 143.185485,238.754183 C143.081485,238.844183 143.004485,238.942183 142.925485,239.054183 C142.835485,239.181183 142.763485,239.303183 142.711485,239.449183 C142.690485,239.509183 142.637485,239.551183 142.622485,239.614183 C142.604485,239.692183 142.637485,239.767183 142.630485,239.845183 C142.622485,239.927183 142.576485,240.000183 142.581485,240.083183 C142.585485,240.156183 142.632485,240.214183 142.645485,240.285183 C142.670485,240.424183 142.709485,240.544183 142.767485,240.672183 C142.831485,240.812183 142.906485,240.931183 143.005485,241.049183 C143.052485,241.105183 143.065485,241.180183 143.119485,241.230183 L256.824485,346.070183 C256.843485,346.088183 256.870485,346.089183 256.889485,346.105183 C257.045485,346.227183 257.214485,346.313183 257.396485,346.374183 C257.728485,346.496183 258.081485,346.549183 258.431485,346.446183 C258.863485,346.320183 259.219485,346.028183 259.430485,345.643183 C259.495485,345.524183 259.547485,345.397183 259.581485,345.263183 L298.774485,195.784183 C298.775485,195.777183 298.772485,195.770183 298.773485,195.764183 C298.789485,195.703183 298.764485,195.641183 298.772485,195.578183 C298.805485,195.326183 298.806485,195.079183 298.728485,194.842183 C298.722485,194.820183 298.732485,194.796183 298.724485,194.774183 C298.691485,194.686183 298.606485,194.640183 298.560485,194.559183 C298.483485,194.423183 298.438485,194.269183 298.322485,194.157183 C298.288485,194.124183 298.239485,194.120183 298.204485,194.091183 L298.204485,194.091183 Z" id="Fill-4" fill="#231F20"></path>
                <path d="M304.66928,356.989834 L431.15028,300.804834 L376.91128,349.866834 L304.66928,356.989834 Z M435.65228,295.135834 L300.30428,355.258834 L370.38928,270.267834 L435.65228,295.135834 Z M367.64328,268.327834 L296.85428,354.172834 L314.58328,210.099834 L367.64328,268.327834 Z M370.83128,266.847834 L324.86728,216.408834 L428.01528,288.635834 L370.83128,266.847834 Z M293.61328,361.074834 C293.72128,361.141834 293.83428,361.166834 293.95328,361.208834 C294.13328,361.270834 294.30328,361.316834 294.49228,361.315834 C294.54728,361.315834 294.59528,361.352834 294.65028,361.346834 L377.79028,353.149834 C378.14828,353.114834 378.48428,352.965834 378.75128,352.724834 L441.17528,296.260834 C441.22328,296.217834 441.23528,296.152834 441.27628,296.105834 C441.36828,296.002834 441.43228,295.894834 441.49528,295.773834 C441.56728,295.635834 441.62228,295.505834 441.65428,295.353834 C441.66728,295.291834 441.71428,295.242834 441.72028,295.177834 C441.72828,295.098834 441.68528,295.028834 441.68228,294.949834 C441.67828,294.867834 441.71428,294.789834 441.69828,294.707834 C441.68528,294.635834 441.63028,294.584834 441.60728,294.515834 C441.56528,294.382834 441.51028,294.267834 441.43528,294.148834 C441.35328,294.018834 441.26328,293.910834 441.14928,293.807834 C441.09628,293.758834 441.07228,293.684834 441.01228,293.642834 L314.32228,204.929834 C314.30128,204.915834 314.27328,204.917834 314.25228,204.904834 C314.08228,204.803834 313.90328,204.740834 313.71428,204.705834 C313.36928,204.629834 313.01328,204.623834 312.67928,204.772834 C312.26928,204.954834 311.95428,205.291834 311.79628,205.700834 C311.74728,205.827834 311.71328,205.961834 311.69728,206.098834 L292.82228,359.472834 C292.82128,359.479834 292.82628,359.486834 292.82528,359.492834 C292.81828,359.555834 292.85128,359.614834 292.85228,359.677834 C292.85228,359.930834 292.88528,360.176834 292.99328,360.400834 C293.00328,360.421834 292.99528,360.446834 293.00628,360.467834 C293.05128,360.550834 293.14128,360.585834 293.19728,360.657834 C293.29228,360.783834 293.35728,360.928834 293.48728,361.025834 C293.52528,361.053834 293.57428,361.050834 293.61328,361.074834 L293.61328,361.074834 Z" id="Fill-6" fill="#231F20"></path>
                <path d="M140.4488,249.1103 L111.3558,384.4173 L103.6548,311.6873 L140.4488,249.1103 Z M113.2858,391.3943 L144.4188,246.6023 L171.8228,353.2993 L113.2858,391.3943 Z M175.0088,352.2233 L147.3288,244.4533 L253.3158,343.6403 L175.0088,352.2233 Z M174.3258,355.6723 L242.1598,348.2353 L123.0368,389.0493 L174.3258,355.6723 Z M143.6588,237.7693 C143.5418,237.8173 143.4558,237.8933 143.3508,237.9653 C143.1948,238.0743 143.0578,238.1843 142.9468,238.3383 C142.9138,238.3823 142.8568,238.3983 142.8288,238.4463 L100.4838,310.4633 C100.3018,310.7733 100.2238,311.1323 100.2608,311.4903 L109.1238,395.1953 C109.1308,395.2583 109.1758,395.3073 109.1898,395.3683 C109.2188,395.5023 109.2678,395.6173 109.3288,395.7403 C109.3978,395.8793 109.4708,396.0013 109.5748,396.1153 C109.6168,396.1633 109.6298,396.2293 109.6778,396.2723 C109.7378,396.3253 109.8188,396.3323 109.8848,396.3763 C109.9528,396.4213 109.9948,396.4963 110.0708,396.5323 C110.1368,396.5633 110.2108,396.5493 110.2788,396.5713 C110.4118,396.6163 110.5368,396.6383 110.6778,396.6483 C110.8308,396.6593 110.9708,396.6503 111.1208,396.6183 C111.1928,396.6043 111.2658,396.6283 111.3358,396.6043 L257.6478,346.4743 C257.6718,346.4653 257.6858,346.4423 257.7088,346.4323 C257.8908,346.3543 258.0468,346.2473 258.1868,346.1153 C258.4518,345.8813 258.6658,345.5963 258.7418,345.2393 C258.8368,344.7993 258.7498,344.3473 258.5118,343.9793 C258.4388,343.8643 258.3508,343.7583 258.2488,343.6643 L145.4198,238.0733 C145.4148,238.0683 145.4068,238.0683 145.4018,238.0643 C145.3558,238.0223 145.2888,238.0133 145.2378,237.9773 C145.0318,237.8273 144.8148,237.7103 144.5698,237.6653 C144.5468,237.6613 144.5318,237.6403 144.5078,237.6363 C144.4148,237.6233 144.3328,237.6763 144.2408,237.6783 C144.0838,237.6813 143.9278,237.6483 143.7728,237.6963 C143.7288,237.7113 143.7018,237.7523 143.6588,237.7693 L143.6588,237.7693 Z" id="Fill-8" fill="#231F20"></path>
                <path d="M237.0367,353.374 L127.8807,438.458 L168.6567,377.743 L237.0367,353.374 Z M124.8827,445.047 L241.6907,353.999 L194.2217,453.406 L124.8827,445.047 Z M197.3547,454.625 L245.3017,354.218 L262.9117,498.306 L197.3547,454.625 Z M194.6187,456.832 L251.4087,494.669 L133.8647,449.508 L194.6187,456.832 Z M246.7777,346.738 C246.6577,346.698 246.5417,346.702 246.4147,346.69 C246.2257,346.673 246.0497,346.67 245.8667,346.716 C245.8127,346.729 245.7587,346.705 245.7057,346.724 L167.0107,374.769 C166.6717,374.891 166.3817,375.116 166.1807,375.415 L119.2517,445.29 C119.2157,445.343 119.2187,445.409 119.1897,445.465 C119.1257,445.587 119.0907,445.706 119.0587,445.84 C119.0217,445.99 118.9997,446.131 119.0057,446.285 C119.0077,446.349 118.9747,446.407 118.9837,446.472 C118.9957,446.551 119.0547,446.608 119.0767,446.684 C119.0997,446.763 119.0837,446.847 119.1197,446.923 C119.1497,446.989 119.2147,447.025 119.2527,447.087 C119.3267,447.206 119.4087,447.305 119.5097,447.401 C119.6207,447.509 119.7337,447.591 119.8697,447.664 C119.9327,447.699 119.9737,447.764 120.0427,447.79 L264.4147,503.259 C264.4387,503.269 264.4647,503.259 264.4897,503.268 C264.6787,503.323 264.8667,503.342 265.0587,503.33 C265.4117,503.32 265.7597,503.239 266.0477,503.015 C266.4027,502.739 266.6247,502.336 266.6797,501.9 C266.6967,501.766 266.6977,501.628 266.6797,501.49 L247.9317,348.101 C247.9307,348.094 247.9257,348.089 247.9247,348.082 C247.9157,348.02 247.8697,347.971 247.8547,347.91 C247.7927,347.664 247.7027,347.434 247.5417,347.243 C247.5277,347.225 247.5297,347.198 247.5137,347.181 C247.4507,347.111 247.3547,347.099 247.2827,347.041 C247.1607,346.943 247.0607,346.817 246.9117,346.755 C246.8687,346.737 246.8217,346.752 246.7777,346.738 L246.7777,346.738 Z" id="Fill-10" fill="#231F20"></path>
                <path d="M255.8145,498.7363 L126.4165,449.6403 L199.4785,452.9563 L255.8145,498.7363 Z M119.2285,450.5003 L257.6985,503.0383 L148.0935,514.0963 L119.2285,450.5003 Z M148.6795,517.4083 L259.3845,506.2383 L145.3975,596.1163 L148.6795,517.4083 Z M145.3725,516.2153 L142.5305,584.3963 L120.0815,460.4933 L145.3725,516.2153 Z M266.5435,503.6143 C266.5155,503.4913 266.4525,503.3943 266.3965,503.2803 C266.3125,503.1103 266.2245,502.9583 266.0895,502.8253 C266.0505,502.7863 266.0435,502.7263 266.0005,502.6913 L201.1645,450.0053 C200.8845,449.7783 200.5415,449.6473 200.1825,449.6313 L116.0965,445.8143 C116.0325,445.8113 115.9785,445.8483 115.9155,445.8523 C115.7775,445.8613 115.6575,445.8933 115.5265,445.9353 C115.3785,445.9823 115.2475,446.0363 115.1185,446.1223 C115.0645,446.1563 114.9975,446.1583 114.9475,446.1993 C114.8865,446.2513 114.8675,446.3313 114.8145,446.3883 C114.7595,446.4493 114.6785,446.4803 114.6325,446.5493 C114.5915,446.6103 114.5945,446.6843 114.5615,446.7493 C114.4985,446.8743 114.4565,446.9953 114.4265,447.1323 C114.3925,447.2823 114.3805,447.4223 114.3885,447.5753 C114.3925,447.6483 114.3575,447.7163 114.3705,447.7893 L141.9445,599.9723 C141.9495,599.9983 141.9705,600.0153 141.9765,600.0403 C142.0265,600.2313 142.1085,600.4013 142.2185,600.5593 C142.4105,600.8573 142.6595,601.1123 143.0015,601.2413 C143.4215,601.4003 143.8815,601.3823 144.2815,601.2023 C144.4055,601.1473 144.5235,601.0763 144.6315,600.9893 L265.9795,505.3093 C265.9845,505.3043 265.9855,505.2983 265.9915,505.2933 C266.0405,505.2543 266.0575,505.1883 266.1025,505.1433 C266.2805,504.9633 266.4295,504.7653 266.5095,504.5303 C266.5175,504.5073 266.5415,504.4963 266.5475,504.4733 C266.5755,504.3833 266.5355,504.2953 266.5465,504.2043 C266.5675,504.0483 266.6245,503.8983 266.5985,503.7383 C266.5915,503.6913 266.5545,503.6593 266.5435,503.6143 L266.5435,503.6143 Z" id="Fill-12" fill="#231F20"></path>
                <path d="M144.359342,587.672494 L119.66272,455.672494 L153.66272,517.844099 L144.359342,587.672494 Z M115.518357,451.175983 L142.283361,592.175983 L77.2833605,507.181756 L115.518357,451.175983 Z M74.7323107,509.215212 L140.469879,595.215212 L7.46987865,546.35689 L74.7323107,509.215212 Z M73.3000685,505.614526 L14.913674,538.053762 L106.913674,456.053762 L73.3000685,505.614526 Z M144.833121,599.310902 C144.920982,599.224293 144.969457,599.123585 145.0351,599.020863 C145.134069,598.863758 145.215871,598.71471 145.257276,598.53545 C145.269395,598.483082 145.31484,598.446827 145.321909,598.393451 L156.129783,518.103929 C156.176238,517.757493 156.110595,517.408036 155.941943,517.10289 L116.443012,445.615255 C116.413725,445.561879 116.355151,445.534688 116.319805,445.485341 C116.243053,445.375569 116.155193,445.291982 116.054203,445.204366 C115.940085,445.106679 115.828997,445.025105 115.692662,444.961659 C115.637118,444.935475 115.600761,444.880086 115.541178,444.859944 C115.468465,444.834767 115.391714,444.859944 115.316981,444.845845 C115.23821,444.830739 115.172567,444.779377 115.090765,444.775349 C115.020073,444.773335 114.959479,444.813618 114.889797,444.818654 C114.753461,444.829732 114.632274,444.856923 114.503008,444.900227 C114.361623,444.94756 114.239426,445.008992 114.116219,445.093587 C114.057645,445.13387 113.983923,445.138905 113.929389,445.187245 L1.68282243,544.996009 C1.66464436,545.01313 1.66060479,545.039314 1.64242671,545.057441 C1.51013074,545.194404 1.41116124,545.349495 1.33541927,545.520698 C1.18595512,545.828865 1.10112412,546.164223 1.16676716,546.512673 C1.24755859,546.940682 1.49599224,547.312295 1.84844487,547.551981 C1.9575133,547.625497 2.07668066,547.687936 2.20291727,547.734262 L143.140541,599.700642 C143.1466,599.702656 143.153669,599.699635 143.159729,599.702656 C143.217293,599.722798 143.280916,599.704671 143.3405,599.71877 C143.580854,599.775166 143.819189,599.798329 144.056514,599.745961 C144.078731,599.740926 144.099939,599.754018 144.122157,599.747975 C144.211027,599.725819 144.264552,599.648274 144.345343,599.612019 C144.485718,599.54958 144.638212,599.520375 144.758389,599.41866 C144.792726,599.389454 144.801815,599.342122 144.833121,599.310902 L144.833121,599.310902 Z" id="Fill-14" fill="#231F20" transform="translate(78.646997, 522.277645) rotate(0.500000) translate(-78.646997, -522.277645) "></path>
                <path d="M165.1451,623.1221 L293.8181,674.0891 L220.8121,669.7141 L165.1451,623.1221 Z M301.0181,673.3331 L163.3241,618.7941 L273.0771,609.3251 L301.0181,673.3331 Z M272.5391,606.0061 L161.6841,615.5691 L276.9621,527.3531 L272.5391,606.0061 Z M275.8291,607.2461 L279.6591,539.1131 L300.3101,663.3291 L275.8291,607.2461 Z M154.4871,618.0901 C154.5141,618.2131 154.5761,618.3101 154.6291,618.4261 C154.7111,618.5981 154.7971,618.7511 154.9301,618.8861 C154.9691,618.9251 154.9761,618.9841 155.0191,619.0201 L219.0831,672.6411 C219.3591,672.8711 219.7011,673.0081 220.0601,673.0291 L304.0811,678.0631 C304.1451,678.0671 304.2001,678.0311 304.2631,678.0281 C304.4001,678.0211 304.5211,677.9911 304.6531,677.9511 C304.8021,677.9061 304.9341,677.8541 305.0631,677.7701 C305.1171,677.7361 305.1851,677.7351 305.2351,677.6951 C305.2981,677.6451 305.3171,677.5651 305.3711,677.5081 C305.4281,677.4481 305.5081,677.4191 305.5561,677.3501 C305.5981,677.2901 305.5961,677.2151 305.6291,677.1511 C305.6951,677.0271 305.7381,676.9071 305.7701,676.7701 C305.8071,676.6211 305.8201,676.4811 305.8141,676.3281 C305.8121,676.2551 305.8481,676.1871 305.8361,676.1141 L280.4711,523.5481 C280.4671,523.5221 280.4451,523.5051 280.4401,523.4791 C280.3931,523.2881 280.3121,523.1161 280.2051,522.9561 C280.0191,522.6561 279.7721,522.3981 279.4331,522.2641 C279.0161,522.0991 278.5551,522.1101 278.1511,522.2841 C278.0271,522.3381 277.9081,522.4071 277.7991,522.4921 L155.0771,616.4031 C155.0711,616.4071 155.0701,616.4151 155.0641,616.4191 C155.0151,616.4581 154.9961,616.5221 154.9511,616.5661 C154.7701,616.7451 154.6181,616.9391 154.5351,617.1741 C154.5261,617.1961 154.5031,617.2081 154.4961,617.2301 C154.4681,617.3201 154.5061,617.4091 154.4931,617.5001 C154.4701,617.6561 154.4121,617.8051 154.4341,617.9651 C154.4401,618.0121 154.4771,618.0451 154.4871,618.0901 L154.4871,618.0901 Z" id="Fill-16" fill="#231F20"></path>
                <path d="M236.419,744.289 L162.835,627.073 L219.105,673.792 L236.419,744.289 Z M156.584,623.423 L235.326,748.855 L141.24,691.557 L156.584,623.423 Z M139.71,694.551 L234.741,752.426 L89.611,755.345 L139.71,694.551 Z M137.792,691.604 L94.395,744.268 L151.235,631.906 L137.792,691.604 Z M242.033,754.652 C242.085,754.536 242.093,754.421 242.117,754.297 C242.153,754.11 242.175,753.935 242.148,753.748 C242.14,753.693 242.169,753.642 242.156,753.588 L222.23,672.455 C222.144,672.106 221.949,671.795 221.672,671.564 L156.912,617.796 C156.863,617.755 156.797,617.752 156.745,617.718 C156.63,617.642 156.515,617.595 156.385,617.549 C156.239,617.496 156.102,617.461 155.947,617.451 C155.883,617.446 155.829,617.407 155.764,617.41 C155.684,617.414 155.621,617.466 155.544,617.48 C155.463,617.496 155.38,617.472 155.301,617.499 C155.232,617.522 155.189,617.584 155.125,617.615 C154.998,617.677 154.893,617.748 154.785,617.839 C154.668,617.938 154.574,618.043 154.488,618.17 C154.447,618.23 154.378,618.264 154.345,618.33 L84.53,756.337 C84.519,756.36 84.525,756.387 84.515,756.41 C84.44,756.593 84.403,756.778 84.395,756.971 C84.368,757.323 84.414,757.678 84.608,757.986 C84.847,758.367 85.225,758.63 85.652,758.728 C85.785,758.759 85.922,758.773 86.061,758.769 L240.561,755.663 C240.567,755.663 240.573,755.657 240.58,755.657 C240.643,755.655 240.696,755.614 240.758,755.605 C241.009,755.568 241.248,755.502 241.454,755.362 C241.474,755.349 241.499,755.353 241.518,755.34 C241.594,755.284 241.616,755.189 241.68,755.124 C241.791,755.012 241.926,754.926 242.003,754.783 C242.025,754.742 242.015,754.694 242.033,754.652 L242.033,754.652 Z" id="Fill-18" fill="#231F20"></path>
                <polygon id="Fill-20" fill="#F6F2F1" points="148.6797 517.4082 259.3847 506.2382 145.3977 596.1162"></polygon>
                <polygon id="Fill-22" fill="#F6F2F1" points="119.2285 450.5 257.6985 503.038 148.0935 514.097"></polygon>
                <polygon id="Fill-24" fill="#F6F2F1" points="255.8145 498.7363 126.4165 449.6403 199.4785 452.9563"></polygon>
            </g>
        </g>
    </g>
</svg>